<svg xmlns="http://www.w3.org/2000/svg" xmlns:xlink="http://www.w3.org/1999/xlink" height="184" version="1.1" width="448" xml:space="preserve"><rect id="backgroundrect" width="100%" height="100%" x="0" y="0" fill="none" stroke="none"/><g class="currentLayer" style=""><title>Layer 1</title><path d="M433.4,83.09999084472656 c-2.2,-22 -12.4,-43 -28.9,-58.4 c-17.1,-15.9 -39.3,-24.7 -62.7,-24.7 c-41.5,0 -77.3,27.4 -88.5,67 c-7,-7 -18.5,-11.7 -29.3,-11.7 c-10.8,0 -22.3,4.7 -29.3,11.7 c-11.2,-39.6 -47,-67 -88.5,-67 c-23.3,0 -45.6,8.7 -62.7,24.6 C27,40.09999084472656 16.799999999999997,61.09999084472656 14.600000000000001,83.09999084472656 H0 v18 h14.6 c2.2,22 12.4,43 28.9,58.4 c17.1,15.9 39.3,24.7 62.7,24.7 c50.8,0 92.1,-41.2 92.1,-92 c0,-0.1 0,-0.1 0,-0.1 h0 c0,-9.9 11.5,-21.6 25.7,-21.6 s25.7,11.7 25.7,21.6 h0 c0,0 0,0 0,0.1 c0,50.8 41.3,92 92.1,92 c23.3,0 45.6,-8.7 62.7,-24.7 c16.5,-15.4 26.7,-36.5 28.9,-58.5 H448 v-18 H433.4 zM341.8,169.09999084472656 c-42.5,0 -77,-34.6 -77,-77 c0,-42.5 34.6,-77 77,-77 c42.5,0 77,34.6 77,77 C418.8,134.59999084472656 384.3,169.09999084472656 341.8,169.09999084472656 zM106.19999999999999,169.09999084472656 c-42.5,0 -77,-34.6 -77,-77 c0,-42.5 34.6,-77 77,-77 c42.5,0 77,34.6 77,77 C183.2,134.59999084472656 148.7,169.09999084472656 106.19999999999999,169.09999084472656 z" id="svg_1" class=""/></g></svg>